ISO-10303-21;
HEADER;
/* Generated by software containing ST-Developer
 * from STEP Tools, Inc. (www.steptools.com) 
 */
/* OPTION: using custom renumber hook */

FILE_DESCRIPTION(
/* description */ ('STEP AP242 Edition 2',
'CAx-IF Rec.Pracs.---Representation and Presentation of Product Manufa
cturing Information (PMI)---4.0---2014-10-13',
'CAx-IF Rec.Pracs.---3D Tessellated Geometry---0.4---2014-09-14','2;1',
'CAx-IF Rec.Pracs.---User Defined Attributes---1.5---2016-08-15'),
/* implementation_level */ '2;1');

FILE_NAME(
/* name */ 'Part Studio 2',
/* time_stamp */ '2026-08-08T05:13:10Z',
/* author */ (''),
/* organization */ (''),
/* preprocessor_version */ 'ST-DEVELOPER v20',
/* originating_system */ 'ONSHAPE BY PTC INC, 1.219',
/* authorisation */ '  ');

FILE_SCHEMA (('AP242_MANAGED_MODEL_BASED_3D_ENGINEERING_MIM_LF { 1 0 10303 442 3 1 4 }'));
ENDSEC;

DATA;
#10=SHAPE_REPRESENTATION_RELATIONSHIP('','',#247,#11);
#11=ADVANCED_BREP_SHAPE_REPRESENTATION('',(#245),#385);
#12=ORIENTED_EDGE('',*,*,#72,.F.);
#13=ORIENTED_EDGE('',*,*,#73,.F.);
#14=ORIENTED_EDGE('',*,*,#74,.T.);
#15=ORIENTED_EDGE('',*,*,#75,.T.);
#16=ORIENTED_EDGE('',*,*,#76,.F.);
#17=ORIENTED_EDGE('',*,*,#77,.F.);
#18=ORIENTED_EDGE('',*,*,#78,.T.);
#19=ORIENTED_EDGE('',*,*,#73,.T.);
#20=ORIENTED_EDGE('',*,*,#79,.T.);
#21=ORIENTED_EDGE('',*,*,#80,.F.);
#22=ORIENTED_EDGE('',*,*,#81,.F.);
#23=ORIENTED_EDGE('',*,*,#77,.T.);
#24=ORIENTED_EDGE('',*,*,#82,.F.);
#25=ORIENTED_EDGE('',*,*,#83,.F.);
#26=ORIENTED_EDGE('',*,*,#84,.T.);
#27=ORIENTED_EDGE('',*,*,#80,.T.);
#28=ORIENTED_EDGE('',*,*,#85,.F.);
#29=ORIENTED_EDGE('',*,*,#86,.F.);
#30=ORIENTED_EDGE('',*,*,#87,.T.);
#31=ORIENTED_EDGE('',*,*,#83,.T.);
#32=ORIENTED_EDGE('',*,*,#88,.F.);
#33=ORIENTED_EDGE('',*,*,#75,.F.);
#34=ORIENTED_EDGE('',*,*,#89,.T.);
#35=ORIENTED_EDGE('',*,*,#86,.T.);
#36=ORIENTED_EDGE('',*,*,#74,.F.);
#37=ORIENTED_EDGE('',*,*,#78,.F.);
#38=ORIENTED_EDGE('',*,*,#81,.T.);
#39=ORIENTED_EDGE('',*,*,#84,.F.);
#40=ORIENTED_EDGE('',*,*,#87,.F.);
#41=ORIENTED_EDGE('',*,*,#89,.F.);
#42=ORIENTED_EDGE('',*,*,#90,.F.);
#43=ORIENTED_EDGE('',*,*,#91,.F.);
#44=ORIENTED_EDGE('',*,*,#92,.T.);
#45=ORIENTED_EDGE('',*,*,#93,.T.);
#46=ORIENTED_EDGE('',*,*,#72,.T.);
#47=ORIENTED_EDGE('',*,*,#88,.T.);
#48=ORIENTED_EDGE('',*,*,#85,.T.);
#49=ORIENTED_EDGE('',*,*,#82,.T.);
#50=ORIENTED_EDGE('',*,*,#79,.F.);
#51=ORIENTED_EDGE('',*,*,#76,.T.);
#52=ORIENTED_EDGE('',*,*,#91,.T.);
#53=ORIENTED_EDGE('',*,*,#94,.F.);
#54=ORIENTED_EDGE('',*,*,#95,.F.);
#55=ORIENTED_EDGE('',*,*,#96,.T.);
#56=ORIENTED_EDGE('',*,*,#92,.F.);
#57=ORIENTED_EDGE('',*,*,#96,.F.);
#58=ORIENTED_EDGE('',*,*,#97,.T.);
#59=ORIENTED_EDGE('',*,*,#98,.T.);
#60=ORIENTED_EDGE('',*,*,#93,.F.);
#61=ORIENTED_EDGE('',*,*,#98,.F.);
#62=ORIENTED_EDGE('',*,*,#99,.T.);
#63=ORIENTED_EDGE('',*,*,#100,.T.);
#64=ORIENTED_EDGE('',*,*,#90,.T.);
#65=ORIENTED_EDGE('',*,*,#100,.F.);
#66=ORIENTED_EDGE('',*,*,#101,.F.);
#67=ORIENTED_EDGE('',*,*,#94,.T.);
#68=ORIENTED_EDGE('',*,*,#95,.T.);
#69=ORIENTED_EDGE('',*,*,#101,.T.);
#70=ORIENTED_EDGE('',*,*,#99,.F.);
#71=ORIENTED_EDGE('',*,*,#97,.F.);
#72=EDGE_CURVE('',#102,#103,#122,.T.);
#73=EDGE_CURVE('',#104,#102,#123,.T.);
#74=EDGE_CURVE('',#104,#105,#124,.T.);
#75=EDGE_CURVE('',#105,#103,#125,.T.);
#76=EDGE_CURVE('',#106,#102,#126,.T.);
#77=EDGE_CURVE('',#107,#106,#127,.T.);
#78=EDGE_CURVE('',#107,#104,#128,.T.);
#79=EDGE_CURVE('',#106,#108,#129,.T.);
#80=EDGE_CURVE('',#109,#108,#130,.T.);
#81=EDGE_CURVE('',#107,#109,#131,.T.);
#82=EDGE_CURVE('',#110,#108,#132,.T.);
#83=EDGE_CURVE('',#111,#110,#133,.T.);
#84=EDGE_CURVE('',#111,#109,#134,.T.);
#85=EDGE_CURVE('',#112,#110,#135,.T.);
#86=EDGE_CURVE('',#113,#112,#136,.T.);
#87=EDGE_CURVE('',#113,#111,#137,.T.);
#88=EDGE_CURVE('',#103,#112,#138,.T.);
#89=EDGE_CURVE('',#105,#113,#139,.T.);
#90=EDGE_CURVE('',#114,#115,#140,.T.);
#91=EDGE_CURVE('',#116,#114,#141,.T.);
#92=EDGE_CURVE('',#116,#117,#142,.T.);
#93=EDGE_CURVE('',#117,#115,#143,.T.);
#94=EDGE_CURVE('',#118,#114,#144,.T.);
#95=EDGE_CURVE('',#119,#118,#145,.T.);
#96=EDGE_CURVE('',#119,#116,#146,.T.);
#97=EDGE_CURVE('',#119,#120,#147,.T.);
#98=EDGE_CURVE('',#120,#117,#148,.T.);
#99=EDGE_CURVE('',#120,#121,#149,.T.);
#100=EDGE_CURVE('',#121,#115,#150,.T.);
#101=EDGE_CURVE('',#118,#121,#151,.T.);
#102=VERTEX_POINT('',#323);
#103=VERTEX_POINT('',#324);
#104=VERTEX_POINT('',#326);
#105=VERTEX_POINT('',#328);
#106=VERTEX_POINT('',#332);
#107=VERTEX_POINT('',#334);
#108=VERTEX_POINT('',#338);
#109=VERTEX_POINT('',#340);
#110=VERTEX_POINT('',#344);
#111=VERTEX_POINT('',#346);
#112=VERTEX_POINT('',#350);
#113=VERTEX_POINT('',#352);
#114=VERTEX_POINT('',#360);
#115=VERTEX_POINT('',#361);
#116=VERTEX_POINT('',#363);
#117=VERTEX_POINT('',#365);
#118=VERTEX_POINT('',#369);
#119=VERTEX_POINT('',#371);
#120=VERTEX_POINT('',#375);
#121=VERTEX_POINT('',#379);
#122=LINE('',#322,#152);
#123=LINE('',#325,#153);
#124=LINE('',#327,#154);
#125=LINE('',#329,#155);
#126=LINE('',#331,#156);
#127=LINE('',#333,#157);
#128=LINE('',#335,#158);
#129=LINE('',#337,#159);
#130=LINE('',#339,#160);
#131=LINE('',#341,#161);
#132=LINE('',#343,#162);
#133=LINE('',#345,#163);
#134=LINE('',#347,#164);
#135=LINE('',#349,#165);
#136=LINE('',#351,#166);
#137=LINE('',#353,#167);
#138=LINE('',#355,#168);
#139=LINE('',#356,#169);
#140=LINE('',#359,#170);
#141=LINE('',#362,#171);
#142=LINE('',#364,#172);
#143=LINE('',#366,#173);
#144=LINE('',#368,#174);
#145=LINE('',#370,#175);
#146=LINE('',#372,#176);
#147=LINE('',#374,#177);
#148=LINE('',#376,#178);
#149=LINE('',#378,#179);
#150=LINE('',#380,#180);
#151=LINE('',#382,#181);
#152=VECTOR('',#266,1.);
#153=VECTOR('',#267,1.);
#154=VECTOR('',#268,1.);
#155=VECTOR('',#269,1.);
#156=VECTOR('',#272,1.);
#157=VECTOR('',#273,1.);
#158=VECTOR('',#274,1.);
#159=VECTOR('',#277,1.);
#160=VECTOR('',#278,1.);
#161=VECTOR('',#279,1.);
#162=VECTOR('',#282,1.);
#163=VECTOR('',#283,1.);
#164=VECTOR('',#284,1.);
#165=VECTOR('',#287,1.);
#166=VECTOR('',#288,1.);
#167=VECTOR('',#289,1.);
#168=VECTOR('',#292,1.);
#169=VECTOR('',#293,1.);
#170=VECTOR('',#298,1.);
#171=VECTOR('',#299,1.);
#172=VECTOR('',#300,1.);
#173=VECTOR('',#301,1.);
#174=VECTOR('',#304,1.);
#175=VECTOR('',#305,1.);
#176=VECTOR('',#306,1.);
#177=VECTOR('',#309,1.);
#178=VECTOR('',#310,1.);
#179=VECTOR('',#313,1.);
#180=VECTOR('',#314,1.);
#181=VECTOR('',#317,1.);
#182=EDGE_LOOP('',(#12,#13,#14,#15));
#183=EDGE_LOOP('',(#16,#17,#18,#19));
#184=EDGE_LOOP('',(#20,#21,#22,#23));
#185=EDGE_LOOP('',(#24,#25,#26,#27));
#186=EDGE_LOOP('',(#28,#29,#30,#31));
#187=EDGE_LOOP('',(#32,#33,#34,#35));
#188=EDGE_LOOP('',(#36,#37,#38,#39,#40,#41));
#189=EDGE_LOOP('',(#42,#43,#44,#45));
#190=EDGE_LOOP('',(#46,#47,#48,#49,#50,#51));
#191=EDGE_LOOP('',(#52,#53,#54,#55));
#192=EDGE_LOOP('',(#56,#57,#58,#59));
#193=EDGE_LOOP('',(#60,#61,#62,#63));
#194=EDGE_LOOP('',(#64,#65,#66,#67));
#195=EDGE_LOOP('',(#68,#69,#70,#71));
#196=FACE_BOUND('',#182,.T.);
#197=FACE_BOUND('',#183,.T.);
#198=FACE_BOUND('',#184,.T.);
#199=FACE_BOUND('',#185,.T.);
#200=FACE_BOUND('',#186,.T.);
#201=FACE_BOUND('',#187,.T.);
#202=FACE_BOUND('',#188,.T.);
#203=FACE_BOUND('',#189,.T.);
#204=FACE_BOUND('',#190,.T.);
#205=FACE_BOUND('',#191,.T.);
#206=FACE_BOUND('',#192,.T.);
#207=FACE_BOUND('',#193,.T.);
#208=FACE_BOUND('',#194,.T.);
#209=FACE_BOUND('',#195,.T.);
#210=PLANE('',#249);
#211=PLANE('',#250);
#212=PLANE('',#251);
#213=PLANE('',#252);
#214=PLANE('',#253);
#215=PLANE('',#254);
#216=PLANE('',#255);
#217=PLANE('',#256);
#218=PLANE('',#257);
#219=PLANE('',#258);
#220=PLANE('',#259);
#221=PLANE('',#260);
#222=PLANE('',#261);
#223=ADVANCED_FACE('',(#196),#210,.T.);
#224=ADVANCED_FACE('',(#197),#211,.T.);
#225=ADVANCED_FACE('',(#198),#212,.F.);
#226=ADVANCED_FACE('',(#199),#213,.T.);
#227=ADVANCED_FACE('',(#200),#214,.T.);
#228=ADVANCED_FACE('',(#201),#215,.T.);
#229=ADVANCED_FACE('',(#202),#216,.T.);
#230=ADVANCED_FACE('',(#203,#204),#217,.F.);
#231=ADVANCED_FACE('',(#205),#218,.F.);
#232=ADVANCED_FACE('',(#206),#219,.T.);
#233=ADVANCED_FACE('',(#207),#220,.T.);
#234=ADVANCED_FACE('',(#208),#221,.F.);
#235=ADVANCED_FACE('',(#209),#222,.F.);
#236=CLOSED_SHELL('',(#223,#224,#225,#226,#227,#228,#229,#230,#231,#232,
#233,#234,#235));
#237=STYLED_ITEM('',(#238),#245);
#238=PRESENTATION_STYLE_ASSIGNMENT((#239));
#239=SURFACE_STYLE_USAGE(.BOTH.,#240);
#240=SURFACE_SIDE_STYLE('',(#241));
#241=SURFACE_STYLE_FILL_AREA(#242);
#242=FILL_AREA_STYLE('',(#243));
#243=FILL_AREA_STYLE_COLOUR('',#244);
#244=COLOUR_RGB('',0.615686274509804,0.811764705882353,0.929411764705882);
#245=MANIFOLD_SOLID_BREP('Part 1',#236);
#246=SHAPE_DEFINITION_REPRESENTATION(#390,#247);
#247=SHAPE_REPRESENTATION('Part 1',(#248),#385);
#248=AXIS2_PLACEMENT_3D('',#320,#262,#263);
#249=AXIS2_PLACEMENT_3D('',#321,#264,#265);
#250=AXIS2_PLACEMENT_3D('',#330,#270,#271);
#251=AXIS2_PLACEMENT_3D('',#336,#275,#276);
#252=AXIS2_PLACEMENT_3D('',#342,#280,#281);
#253=AXIS2_PLACEMENT_3D('',#348,#285,#286);
#254=AXIS2_PLACEMENT_3D('',#354,#290,#291);
#255=AXIS2_PLACEMENT_3D('',#357,#294,#295);
#256=AXIS2_PLACEMENT_3D('',#358,#296,#297);
#257=AXIS2_PLACEMENT_3D('',#367,#302,#303);
#258=AXIS2_PLACEMENT_3D('',#373,#307,#308);
#259=AXIS2_PLACEMENT_3D('',#377,#311,#312);
#260=AXIS2_PLACEMENT_3D('',#381,#315,#316);
#261=AXIS2_PLACEMENT_3D('',#383,#318,#319);
#262=DIRECTION('',(0.,0.,1.));
#263=DIRECTION('',(1.,0.,0.));
#264=DIRECTION('',(0.910399525347785,0.,-0.413730231245589));
#265=DIRECTION('',(-0.413730231245589,0.,-0.910399525347785));
#266=DIRECTION('',(-0.413730231245589,0.,-0.910399525347785));
#267=DIRECTION('',(0.,1.,0.));
#268=DIRECTION('',(-0.413730231245589,0.,-0.910399525347785));
#269=DIRECTION('',(0.,1.,0.));
#270=DIRECTION('',(0.,0.,1.));
#271=DIRECTION('',(1.,0.,0.));
#272=DIRECTION('',(1.,0.,0.));
#273=DIRECTION('',(0.,1.,0.));
#274=DIRECTION('',(1.,0.,0.));
#275=DIRECTION('',(-0.981438845200645,0.,0.191775371545002));
#276=DIRECTION('',(0.191775371545002,0.,0.981438845200646));
#277=DIRECTION('',(0.191775371545002,0.,0.981438845200645));
#278=DIRECTION('',(0.,1.,0.));
#279=DIRECTION('',(0.191775371545002,0.,0.981438845200645));
#280=DIRECTION('',(-0.832344234866498,0.,0.55425903211811));
#281=DIRECTION('',(0.55425903211811,0.,0.832344234866498));
#282=DIRECTION('',(0.55425903211811,0.,0.832344234866498));
#283=DIRECTION('',(0.,1.,0.));
#284=DIRECTION('',(0.55425903211811,0.,0.832344234866498));
#285=DIRECTION('',(0.,0.,-1.));
#286=DIRECTION('',(-1.,0.,0.));
#287=DIRECTION('',(-1.,0.,0.));
#288=DIRECTION('',(0.,1.,0.));
#289=DIRECTION('',(-1.,0.,0.));
#290=DIRECTION('',(-1.,0.,-6.68390752888069E-17));
#291=DIRECTION('',(-6.68390752888069E-17,0.,1.));
#292=DIRECTION('',(-6.68390752888069E-17,0.,1.));
#293=DIRECTION('',(-6.68390752888069E-17,0.,1.));
#294=DIRECTION('',(0.,-1.,0.));
#295=DIRECTION('',(1.,0.,0.));
#296=DIRECTION('',(0.,-1.,0.));
#297=DIRECTION('',(1.,0.,0.));
#298=DIRECTION('',(2.16840434497101E-16,0.,-1.));
#299=DIRECTION('',(1.,0.,0.));
#300=DIRECTION('',(2.16840434497101E-16,0.,-1.));
#301=DIRECTION('',(1.,0.,0.));
#302=DIRECTION('',(0.,0.,1.));
#303=DIRECTION('',(1.,0.,0.));
#304=DIRECTION('',(0.,1.,0.));
#305=DIRECTION('',(1.,0.,0.));
#306=DIRECTION('',(0.,1.,0.));
#307=DIRECTION('',(1.,0.,2.16840434497101E-16));
#308=DIRECTION('',(2.16840434497101E-16,0.,-1.));
#309=DIRECTION('',(2.16840434497101E-16,0.,-1.));
#310=DIRECTION('',(0.,1.,0.));
#311=DIRECTION('',(0.,0.,1.));
#312=DIRECTION('',(1.,0.,0.));
#313=DIRECTION('',(1.,0.,0.));
#314=DIRECTION('',(0.,1.,0.));
#315=DIRECTION('',(1.,0.,2.16840434497101E-16));
#316=DIRECTION('',(2.16840434497101E-16,0.,-1.));
#317=DIRECTION('',(2.16840434497101E-16,0.,-1.));
#318=DIRECTION('',(0.,-1.,0.));
#319=DIRECTION('',(1.,0.,0.));
#320=CARTESIAN_POINT('',(0.,0.,0.));
#321=CARTESIAN_POINT('',(0.0100446681790719,-0.01,-0.00108054144061543));
#322=CARTESIAN_POINT('',(0.0100446681790719,0.,-0.00108054144061543));
#323=CARTESIAN_POINT('',(0.0200893363581437,0.,0.0210224146691467));
#324=CARTESIAN_POINT('',(1.54956353822756E-18,0.,-0.0231834975503776));
#325=CARTESIAN_POINT('',(0.0200893363581437,-0.01,0.0210224146691467));
#326=CARTESIAN_POINT('',(0.0200893363581437,-0.01,0.0210224146691467));
#327=CARTESIAN_POINT('',(0.0100446681790719,-0.01,-0.00108054144061543));
#328=CARTESIAN_POINT('',(1.54956353822756E-18,-0.01,-0.0231834975503776));
#329=CARTESIAN_POINT('',(1.54956353822756E-18,-0.01,-0.0231834975503776));
#330=CARTESIAN_POINT('',(0.013512922171457,-0.01,0.0210224146691467));
#331=CARTESIAN_POINT('',(0.013512922171457,0.,0.0210224146691467));
#332=CARTESIAN_POINT('',(0.00693650798477024,0.,0.0210224146691467));
#333=CARTESIAN_POINT('',(0.00693650798477024,-0.01,0.0210224146691467));
#334=CARTESIAN_POINT('',(0.00693650798477024,-0.01,0.0210224146691467));
#335=CARTESIAN_POINT('',(0.013512922171457,-0.01,0.0210224146691467));
#336=CARTESIAN_POINT('',(0.0100476288025723,-0.01,0.0369440358768357));
#337=CARTESIAN_POINT('',(0.0100476288025723,0.,0.0369440358768357));
#338=CARTESIAN_POINT('',(0.0131587496203743,0.,0.0528656570845246));
#339=CARTESIAN_POINT('',(0.0131587496203743,-0.01,0.0528656570845246));
#340=CARTESIAN_POINT('',(0.0131587496203743,-0.01,0.0528656570845246));
#341=CARTESIAN_POINT('',(0.0100476288025723,-0.01,0.0369440358768357));
#342=CARTESIAN_POINT('',(-0.000421455453575534,-0.01,0.0324719336689389));
#343=CARTESIAN_POINT('',(-0.000421455453575534,0.,0.0324719336689389));
#344=CARTESIAN_POINT('',(-0.0140016605275254,0.,0.0120782102533532));
#345=CARTESIAN_POINT('',(-0.0140016605275254,-0.01,0.0120782102533532));
#346=CARTESIAN_POINT('',(-0.0140016605275254,-0.01,0.0120782102533532));
#347=CARTESIAN_POINT('',(-0.000421455453575534,-0.01,0.0324719336689389));
#348=CARTESIAN_POINT('',(-0.00700083026376269,-0.01,0.0120782102533532));
#349=CARTESIAN_POINT('',(-0.00700083026376269,0.,0.0120782102533532));
#350=CARTESIAN_POINT('',(1.7347234759768E-18,0.,0.0120782102533532));
#351=CARTESIAN_POINT('',(1.7347234759768E-18,-0.01,0.0120782102533532));
#352=CARTESIAN_POINT('',(1.7347234759768E-18,-0.01,0.0120782102533532));
#353=CARTESIAN_POINT('',(-0.00700083026376269,-0.01,0.0120782102533532));
#354=CARTESIAN_POINT('',(3.71133566874821E-19,-0.01,-0.00555264364851218));
#355=CARTESIAN_POINT('',(3.71133566874821E-19,0.,-0.00555264364851218));
#356=CARTESIAN_POINT('',(3.71133566874821E-19,-0.01,-0.00555264364851218));
#357=CARTESIAN_POINT('',(0.00304383791530917,-0.01,0.0148410797670735));
#358=CARTESIAN_POINT('',(0.00304383791530917,0.,0.0148410797670735));
#359=CARTESIAN_POINT('',(0.0035,0.,0.0150224146691467));
#360=CARTESIAN_POINT('',(0.0035,0.,0.0170224146691467));
#361=CARTESIAN_POINT('',(0.0035,0.,0.0130224146691467));
#362=CARTESIAN_POINT('',(0.003,0.,0.0170224146691467));
#363=CARTESIAN_POINT('',(0.0025,0.,0.0170224146691467));
#364=CARTESIAN_POINT('',(0.0025,0.,0.0150224146691467));
#365=CARTESIAN_POINT('',(0.0025,0.,0.0130224146691467));
#366=CARTESIAN_POINT('',(0.003,0.,0.0130224146691467));
#367=CARTESIAN_POINT('',(0.003,-0.009,0.0170224146691467));
#368=CARTESIAN_POINT('',(0.0035,-0.009,0.0170224146691467));
#369=CARTESIAN_POINT('',(0.0035,-0.009,0.0170224146691467));
#370=CARTESIAN_POINT('',(0.003,-0.009,0.0170224146691467));
#371=CARTESIAN_POINT('',(0.0025,-0.009,0.0170224146691467));
#372=CARTESIAN_POINT('',(0.0025,-0.009,0.0170224146691467));
#373=CARTESIAN_POINT('',(0.0025,-0.009,0.0150224146691467));
#374=CARTESIAN_POINT('',(0.0025,-0.009,0.0150224146691467));
#375=CARTESIAN_POINT('',(0.0025,-0.009,0.0130224146691467));
#376=CARTESIAN_POINT('',(0.0025,-0.009,0.0130224146691467));
#377=CARTESIAN_POINT('',(0.003,-0.009,0.0130224146691467));
#378=CARTESIAN_POINT('',(0.003,-0.009,0.0130224146691467));
#379=CARTESIAN_POINT('',(0.0035,-0.009,0.0130224146691467));
#380=CARTESIAN_POINT('',(0.0035,-0.009,0.0130224146691467));
#381=CARTESIAN_POINT('',(0.0035,-0.009,0.0150224146691467));
#382=CARTESIAN_POINT('',(0.0035,-0.009,0.0150224146691467));
#383=CARTESIAN_POINT('',(0.003,-0.009,0.0150224146691467));
#384=MECHANICAL_DESIGN_GEOMETRIC_PRESENTATION_REPRESENTATION('',(#237),
#385);
#385=(
GEOMETRIC_REPRESENTATION_CONTEXT(3)
GLOBAL_UNCERTAINTY_ASSIGNED_CONTEXT((#386))
GLOBAL_UNIT_ASSIGNED_CONTEXT((#389,#388,#387))
REPRESENTATION_CONTEXT('Part 1','TOP_LEVEL_ASSEMBLY_PART')
);
#386=UNCERTAINTY_MEASURE_WITH_UNIT(LENGTH_MEASURE(1.E-8),#389,
'DISTANCE_ACCURACY_VALUE','Maximum Tolerance applied to model');
#387=(
NAMED_UNIT(*)
SI_UNIT($,.STERADIAN.)
SOLID_ANGLE_UNIT()
);
#388=(
NAMED_UNIT(*)
PLANE_ANGLE_UNIT()
SI_UNIT($,.RADIAN.)
);
#389=(
LENGTH_UNIT()
NAMED_UNIT(*)
SI_UNIT($,.METRE.)
);
#390=PRODUCT_DEFINITION_SHAPE('','',#391);
#391=PRODUCT_DEFINITION('','',#393,#392);
#392=PRODUCT_DEFINITION_CONTEXT('',#399,'design');
#393=PRODUCT_DEFINITION_FORMATION_WITH_SPECIFIED_SOURCE('','',#395,
 .NOT_KNOWN.);
#394=PRODUCT_RELATED_PRODUCT_CATEGORY('','',(#395));
#395=PRODUCT('Part 1','Part 1','Part 1',(#397));
#396=PRODUCT_CATEGORY('','');
#397=PRODUCT_CONTEXT('',#399,'mechanical');
#398=APPLICATION_PROTOCOL_DEFINITION('international standard',
'ap242_managed_model_based_3d_engineering',2020,#399);
#399=APPLICATION_CONTEXT('managed model based 3d engineering');
ENDSEC;
END-ISO-10303-21;
