ISO-10303-21;
HEADER;
/* Generated by software containing ST-Developer
 * from STEP Tools, Inc. (www.steptools.com) 
 */
/* OPTION: using custom renumber hook */

FILE_DESCRIPTION(
/* description */ ('STEP AP242 Edition 2',
'CAx-IF Rec.Pracs.---Representation and Presentation of Product Manufa
cturing Information (PMI)---4.0---2014-10-13',
'CAx-IF Rec.Pracs.---3D Tessellated Geometry---0.4---2014-09-14','2;1',
'CAx-IF Rec.Pracs.---User Defined Attributes---1.5---2016-08-15'),
/* implementation_level */ '2;1');

FILE_NAME(
/* name */ 'Part Studio 2',
/* time_stamp */ '2026-08-08T05:13:53Z',
/* author */ (''),
/* organization */ (''),
/* preprocessor_version */ 'ST-DEVELOPER v20',
/* originating_system */ 'ONSHAPE BY PTC INC, 1.219',
/* authorisation */ '  ');

FILE_SCHEMA (('AP242_MANAGED_MODEL_BASED_3D_ENGINEERING_MIM_LF { 1 0 10303 442 3 1 4 }'));
ENDSEC;

DATA;
#10=SHAPE_REPRESENTATION_RELATIONSHIP('','',#88,#11);
#11=ADVANCED_BREP_SHAPE_REPRESENTATION('',(#86),#198);
#12=PLANE('',#93);
#13=PLANE('',#94);
#14=CIRCLE('',#91,0.016);
#15=CIRCLE('',#92,0.016);
#16=CYLINDRICAL_SURFACE('',#90,0.016);
#17=LINE('',#137,#20);
#18=LINE('',#152,#21);
#19=LINE('',#156,#22);
#20=VECTOR('',#97,1.);
#21=VECTOR('',#98,1.);
#22=VECTOR('',#103,1.);
#23=ORIENTED_EDGE('',*,*,#41,.F.);
#24=ORIENTED_EDGE('',*,*,#42,.F.);
#25=ORIENTED_EDGE('',*,*,#43,.T.);
#26=ORIENTED_EDGE('',*,*,#44,.T.);
#27=ORIENTED_EDGE('',*,*,#45,.T.);
#28=ORIENTED_EDGE('',*,*,#46,.F.);
#29=ORIENTED_EDGE('',*,*,#47,.F.);
#30=ORIENTED_EDGE('',*,*,#42,.T.);
#31=ORIENTED_EDGE('',*,*,#48,.T.);
#32=ORIENTED_EDGE('',*,*,#44,.F.);
#33=ORIENTED_EDGE('',*,*,#49,.F.);
#34=ORIENTED_EDGE('',*,*,#46,.T.);
#35=ORIENTED_EDGE('',*,*,#43,.F.);
#36=ORIENTED_EDGE('',*,*,#47,.T.);
#37=ORIENTED_EDGE('',*,*,#49,.T.);
#38=ORIENTED_EDGE('',*,*,#41,.T.);
#39=ORIENTED_EDGE('',*,*,#48,.F.);
#40=ORIENTED_EDGE('',*,*,#45,.F.);
#41=EDGE_CURVE('',#50,#51,#56,.T.);
#42=EDGE_CURVE('',#52,#50,#17,.T.);
#43=EDGE_CURVE('',#52,#53,#57,.T.);
#44=EDGE_CURVE('',#53,#51,#18,.T.);
#45=EDGE_CURVE('',#50,#54,#14,.T.);
#46=EDGE_CURVE('',#55,#54,#19,.T.);
#47=EDGE_CURVE('',#52,#55,#15,.T.);
#48=EDGE_CURVE('',#54,#51,#58,.T.);
#49=EDGE_CURVE('',#55,#53,#59,.T.);
#50=VERTEX_POINT('',#135);
#51=VERTEX_POINT('',#136);
#52=VERTEX_POINT('',#138);
#53=VERTEX_POINT('',#151);
#54=VERTEX_POINT('',#155);
#55=VERTEX_POINT('',#157);
#56=B_SPLINE_CURVE_WITH_KNOTS('',3,(#123,#124,#125,#126,#127,#128,#129,
#130,#131,#132,#133,#134),.UNSPECIFIED.,.F.,.F.,(4,3,1,1,1,1,1,4),(-0.000681888222624038,
0.,0.25,0.5,0.625,0.75,0.875,0.944088909175824),.UNSPECIFIED.);
#57=B_SPLINE_CURVE_WITH_KNOTS('',3,(#139,#140,#141,#142,#143,#144,#145,
#146,#147,#148,#149,#150),.UNSPECIFIED.,.F.,.F.,(4,3,1,1,1,1,1,4),(-0.000681888222624038,
0.,0.25,0.5,0.625,0.75,0.875,0.944088909175824),.UNSPECIFIED.);
#58=B_SPLINE_CURVE_WITH_KNOTS('',3,(#171,#172,#173,#174,#175,#176,#177,
#178,#179,#180,#181,#182),.UNSPECIFIED.,.F.,.F.,(4,3,1,1,1,1,1,4),(-0.000681888222647125,
0.,0.25,0.5,0.625,0.75,0.875,0.944088909106111),.UNSPECIFIED.);
#59=B_SPLINE_CURVE_WITH_KNOTS('',3,(#183,#184,#185,#186,#187,#188,#189,
#190,#191,#192,#193,#194),.UNSPECIFIED.,.F.,.F.,(4,3,1,1,1,1,1,4),(-0.000681888222647125,
0.,0.25,0.5,0.625,0.75,0.875,0.944088909106111),.UNSPECIFIED.);
#60=EDGE_LOOP('',(#23,#24,#25,#26));
#61=EDGE_LOOP('',(#27,#28,#29,#30));
#62=EDGE_LOOP('',(#31,#32,#33,#34));
#63=EDGE_LOOP('',(#35,#36,#37));
#64=EDGE_LOOP('',(#38,#39,#40));
#65=FACE_BOUND('',#60,.T.);
#66=FACE_BOUND('',#61,.T.);
#67=FACE_BOUND('',#62,.T.);
#68=FACE_BOUND('',#63,.T.);
#69=FACE_BOUND('',#64,.T.);
#70=B_SPLINE_SURFACE_WITH_KNOTS('',3,1,((#111,#112),(#113,#114),(#115,#116),
(#117,#118),(#119,#120),(#121,#122)),.SURF_OF_LINEAR_EXTRUSION.,.F.,.F.,
 .F.,(4,1,1,4),(2,2),(-0.000681888222624038,0.4717035104766,0.707896209826212,
0.944088909175824),(0.,1.),.UNSPECIFIED.);
#71=B_SPLINE_SURFACE_WITH_KNOTS('',3,1,((#159,#160),(#161,#162),(#163,#164),
(#165,#166),(#167,#168),(#169,#170)),.SURF_OF_LINEAR_EXTRUSION.,.F.,.F.,
 .F.,(4,1,1,4),(2,2),(-0.000681888222647125,0.471703510441732,0.707896209773921,
0.944088909106111),(0.,1.),.UNSPECIFIED.);
#72=ADVANCED_FACE('',(#65),#70,.T.);
#73=ADVANCED_FACE('',(#66),#16,.T.);
#74=ADVANCED_FACE('',(#67),#71,.F.);
#75=ADVANCED_FACE('',(#68),#12,.T.);
#76=ADVANCED_FACE('',(#69),#13,.F.);
#77=CLOSED_SHELL('',(#72,#73,#74,#75,#76));
#78=STYLED_ITEM('',(#79),#86);
#79=PRESENTATION_STYLE_ASSIGNMENT((#80));
#80=SURFACE_STYLE_USAGE(.BOTH.,#81);
#81=SURFACE_SIDE_STYLE('',(#82));
#82=SURFACE_STYLE_FILL_AREA(#83);
#83=FILL_AREA_STYLE('',(#84));
#84=FILL_AREA_STYLE_COLOUR('',#85);
#85=COLOUR_RGB('',0.615686274509804,0.811764705882353,0.929411764705882);
#86=MANIFOLD_SOLID_BREP('Part 1',#77);
#87=SHAPE_DEFINITION_REPRESENTATION(#203,#88);
#88=SHAPE_REPRESENTATION('Part 1',(#89),#198);
#89=AXIS2_PLACEMENT_3D('',#110,#95,#96);
#90=AXIS2_PLACEMENT_3D('',#153,#99,#100);
#91=AXIS2_PLACEMENT_3D('',#154,#101,#102);
#92=AXIS2_PLACEMENT_3D('',#158,#104,#105);
#93=AXIS2_PLACEMENT_3D('',#195,#106,#107);
#94=AXIS2_PLACEMENT_3D('',#196,#108,#109);
#95=DIRECTION('',(0.,0.,1.));
#96=DIRECTION('',(1.,0.,0.));
#97=DIRECTION('',(0.,1.,0.));
#98=DIRECTION('',(0.,1.,0.));
#99=DIRECTION('',(0.,1.,0.));
#100=DIRECTION('',(0.,0.,1.));
#101=DIRECTION('',(0.,-1.,0.));
#102=DIRECTION('',(0.,0.,-1.));
#103=DIRECTION('',(0.,1.,0.));
#104=DIRECTION('',(0.,-1.,0.));
#105=DIRECTION('',(0.,0.,-1.));
#106=DIRECTION('',(0.,-1.,0.));
#107=DIRECTION('',(1.,0.,0.));
#108=DIRECTION('',(0.,-1.,0.));
#109=DIRECTION('',(1.,0.,0.));
#110=CARTESIAN_POINT('',(0.,0.,0.));
#111=CARTESIAN_POINT('',(-0.0157620958504306,-0.001,0.00274887875357199));
#112=CARTESIAN_POINT('',(-0.0157620958504306,-2.16840434497101E-19,0.00274887875357199));
#113=CARTESIAN_POINT('',(-0.0150081597068282,-0.001,0.00772778615455933));
#114=CARTESIAN_POINT('',(-0.0150081597068282,-2.16840434497101E-19,0.00772778615455933));
#115=CARTESIAN_POINT('',(-0.0113741777797894,-0.001,0.0160028761748136));
#116=CARTESIAN_POINT('',(-0.0113741777797894,-2.16840434497101E-19,0.0160028761748136));
#117=CARTESIAN_POINT('',(-0.00472763946912568,-0.001,0.0247137414575233));
#118=CARTESIAN_POINT('',(-0.00472763946912568,0.,0.0247137414575233));
#119=CARTESIAN_POINT('',(-0.00143076693486301,-0.001,0.0276760156945308));
#120=CARTESIAN_POINT('',(-0.00143076693486301,0.,0.0276760156945308));
#121=CARTESIAN_POINT('',(5.58406023244001E-13,-0.001,0.0286477689147449));
#122=CARTESIAN_POINT('',(5.58406023244001E-13,0.,0.0286477689147449));
#123=CARTESIAN_POINT('',(-0.0157620958504306,0.,0.00274887875357199));
#124=CARTESIAN_POINT('',(-0.0157610075437675,0.,0.00275606580534712));
#125=CARTESIAN_POINT('',(-0.0157599192371044,0.,0.00276325285712226));
#126=CARTESIAN_POINT('',(-0.0157588309304413,0.,0.0027704399088974));
#127=CARTESIAN_POINT('',(-0.015359826142346,0.,0.00540542154396735));
#128=CARTESIAN_POINT('',(-0.0136363639908149,0.,0.010984957055018));
#129=CARTESIAN_POINT('',(-0.0099029013786483,0.,0.0177196207944147));
#130=CARTESIAN_POINT('',(-0.00648425375740822,0.,0.0223988144555924));
#131=CARTESIAN_POINT('',(-0.00384104867378488,0.,0.0254154905226054));
#132=CARTESIAN_POINT('',(-0.00165115249004674,0.,0.0274433744776886));
#133=CARTESIAN_POINT('',(-0.000418514742383689,0.,0.0283635206286736));
#134=CARTESIAN_POINT('',(5.58406023244001E-13,0.,0.0286477689147449));
#135=CARTESIAN_POINT('',(-0.0157620958504306,0.,0.00274887875357198));
#136=CARTESIAN_POINT('',(5.58433372243802E-13,0.,0.028647768914745));
#137=CARTESIAN_POINT('',(-0.0157620958504306,-0.001,0.00274887875357198));
#138=CARTESIAN_POINT('',(-0.0157620958504306,-0.001,0.00274887875357198));
#139=CARTESIAN_POINT('',(-0.0157620958504306,-0.001,0.00274887875357199));
#140=CARTESIAN_POINT('',(-0.0157610075437675,-0.001,0.00275606580534712));
#141=CARTESIAN_POINT('',(-0.0157599192371044,-0.001,0.00276325285712226));
#142=CARTESIAN_POINT('',(-0.0157588309304413,-0.001,0.0027704399088974));
#143=CARTESIAN_POINT('',(-0.015359826142346,-0.001,0.00540542154396735));
#144=CARTESIAN_POINT('',(-0.0136363639908149,-0.001,0.010984957055018));
#145=CARTESIAN_POINT('',(-0.0099029013786483,-0.001,0.0177196207944147));
#146=CARTESIAN_POINT('',(-0.00648425375740822,-0.001,0.0223988144555924));
#147=CARTESIAN_POINT('',(-0.00384104867378488,-0.001,0.0254154905226054));
#148=CARTESIAN_POINT('',(-0.00165115249004674,-0.001,0.0274433744776886));
#149=CARTESIAN_POINT('',(-0.000418514742383689,-0.001,0.0283635206286736));
#150=CARTESIAN_POINT('',(5.58406023244001E-13,-0.001,0.0286477689147449));
#151=CARTESIAN_POINT('',(5.58433372243802E-13,-0.001,0.028647768914745));
#152=CARTESIAN_POINT('',(5.58433372243802E-13,-0.001,0.028647768914745));
#153=CARTESIAN_POINT('',(-7.75881827264801E-18,-0.001,2.16840434497101E-19));
#154=CARTESIAN_POINT('',(-7.75881827264801E-18,0.,2.16840434497101E-19));
#155=CARTESIAN_POINT('',(0.0157620958502807,0.,0.00274887875443171));
#156=CARTESIAN_POINT('',(0.0157620958502807,-0.001,0.00274887875443171));
#157=CARTESIAN_POINT('',(0.0157620958502807,-0.001,0.00274887875443171));
#158=CARTESIAN_POINT('',(-7.75881827264801E-18,-0.001,2.16840434497101E-19));
#159=CARTESIAN_POINT('',(0.0157620958502807,-0.001,0.00274887875443171));
#160=CARTESIAN_POINT('',(0.0157620958502807,0.,0.00274887875443171));
#161=CARTESIAN_POINT('',(0.0150081597066898,-0.001,0.00772778615505656));
#162=CARTESIAN_POINT('',(0.0150081597066898,0.,0.00772778615505656));
#163=CARTESIAN_POINT('',(0.0113741777801659,-0.001,0.0160028761746388));
#164=CARTESIAN_POINT('',(0.0113741777801659,2.16840434497101E-19,0.0160028761746388));
#165=CARTESIAN_POINT('',(0.00472763947010577,-0.001,0.0247137414570812));
#166=CARTESIAN_POINT('',(0.00472763947010577,-2.16840434497101E-19,0.0247137414570812));
#167=CARTESIAN_POINT('',(0.0014307669360141,-0.001,0.0276760156943038));
#168=CARTESIAN_POINT('',(0.0014307669360141,0.,0.0276760156943038));
#169=CARTESIAN_POINT('',(5.58433372243802E-13,-0.001,0.028647768914745));
#170=CARTESIAN_POINT('',(5.58433372243802E-13,0.,0.028647768914745));
#171=CARTESIAN_POINT('',(0.0157620958502807,0.,0.00274887875443171));
#172=CARTESIAN_POINT('',(0.0157610075436175,0.,0.00275606580620709));
#173=CARTESIAN_POINT('',(0.0157599192369544,0.,0.00276325285798247));
#174=CARTESIAN_POINT('',(0.0157588309302912,0.,0.00277043990975785));
#175=CARTESIAN_POINT('',(0.0153598261421959,0.,0.0054054215448278));
#176=CARTESIAN_POINT('',(0.0136363639906649,0.,0.0109849570558785));
#177=CARTESIAN_POINT('',(0.00990290137849825,0.,0.0177196207952751));
#178=CARTESIAN_POINT('',(0.00648425375725818,0.,0.0223988144564528));
#179=CARTESIAN_POINT('',(0.00384104867363484,0.,0.0254154905234658));
#180=CARTESIAN_POINT('',(0.00165115249037513,0.,0.0274433744781061));
#181=CARTESIAN_POINT('',(0.000418514743119122,0.,0.0283635206288731));
#182=CARTESIAN_POINT('',(5.58433372243802E-13,0.,0.028647768914745));
#183=CARTESIAN_POINT('',(0.0157620958502807,-0.001,0.00274887875443171));
#184=CARTESIAN_POINT('',(0.0157610075436175,-0.001,0.00275606580620709));
#185=CARTESIAN_POINT('',(0.0157599192369544,-0.001,0.00276325285798247));
#186=CARTESIAN_POINT('',(0.0157588309302912,-0.001,0.00277043990975785));
#187=CARTESIAN_POINT('',(0.0153598261421959,-0.001,0.0054054215448278));
#188=CARTESIAN_POINT('',(0.0136363639906649,-0.001,0.0109849570558785));
#189=CARTESIAN_POINT('',(0.00990290137849825,-0.001,0.0177196207952751));
#190=CARTESIAN_POINT('',(0.00648425375725818,-0.001,0.0223988144564528));
#191=CARTESIAN_POINT('',(0.00384104867363484,-0.001,0.0254154905234658));
#192=CARTESIAN_POINT('',(0.00165115249037513,-0.001,0.0274433744781061));
#193=CARTESIAN_POINT('',(0.000418514743119122,-0.001,0.0283635206288731));
#194=CARTESIAN_POINT('',(5.58433372243802E-13,-0.001,0.028647768914745));
#195=CARTESIAN_POINT('',(0.,-0.001,0.00632388445737249));
#196=CARTESIAN_POINT('',(0.,0.,0.00632388445737249));
#197=MECHANICAL_DESIGN_GEOMETRIC_PRESENTATION_REPRESENTATION('',(#78),#198);
#198=(
GEOMETRIC_REPRESENTATION_CONTEXT(3)
GLOBAL_UNCERTAINTY_ASSIGNED_CONTEXT((#199))
GLOBAL_UNIT_ASSIGNED_CONTEXT((#202,#201,#200))
REPRESENTATION_CONTEXT('Part 1','TOP_LEVEL_ASSEMBLY_PART')
);
#199=UNCERTAINTY_MEASURE_WITH_UNIT(LENGTH_MEASURE(2.E-5),#202,
'DISTANCE_ACCURACY_VALUE','Maximum Tolerance applied to model');
#200=(
NAMED_UNIT(*)
SI_UNIT($,.STERADIAN.)
SOLID_ANGLE_UNIT()
);
#201=(
NAMED_UNIT(*)
PLANE_ANGLE_UNIT()
SI_UNIT($,.RADIAN.)
);
#202=(
LENGTH_UNIT()
NAMED_UNIT(*)
SI_UNIT($,.METRE.)
);
#203=PRODUCT_DEFINITION_SHAPE('','',#204);
#204=PRODUCT_DEFINITION('','',#206,#205);
#205=PRODUCT_DEFINITION_CONTEXT('',#212,'design');
#206=PRODUCT_DEFINITION_FORMATION_WITH_SPECIFIED_SOURCE('','',#208,
 .NOT_KNOWN.);
#207=PRODUCT_RELATED_PRODUCT_CATEGORY('','',(#208));
#208=PRODUCT('Part 1','Part 1','Part 1',(#210));
#209=PRODUCT_CATEGORY('','');
#210=PRODUCT_CONTEXT('',#212,'mechanical');
#211=APPLICATION_PROTOCOL_DEFINITION('international standard',
'ap242_managed_model_based_3d_engineering',2020,#212);
#212=APPLICATION_CONTEXT('managed model based 3d engineering');
ENDSEC;
END-ISO-10303-21;
