ISO-10303-21;
HEADER;
/* Generated by software containing ST-Developer
 * from STEP Tools, Inc. (www.steptools.com) 
 */
/* OPTION: using custom renumber hook */

FILE_DESCRIPTION(
/* description */ ('STEP AP242 Edition 2',
'CAx-IF Rec.Pracs.---Representation and Presentation of Product Manufa
cturing Information (PMI)---4.0---2014-10-13',
'CAx-IF Rec.Pracs.---3D Tessellated Geometry---0.4---2014-09-14','2;1',
'CAx-IF Rec.Pracs.---User Defined Attributes---1.5---2016-08-15'),
/* implementation_level */ '2;1');

FILE_NAME(
/* name */ 'Part Studio 1',
/* time_stamp */ '2026-08-08T05:13:38Z',
/* author */ (''),
/* organization */ (''),
/* preprocessor_version */ 'ST-DEVELOPER v20',
/* originating_system */ 'ONSHAPE BY PTC INC, 1.219',
/* authorisation */ '  ');

FILE_SCHEMA (('AP242_MANAGED_MODEL_BASED_3D_ENGINEERING_MIM_LF { 1 0 10303 442 3 1 4 }'));
ENDSEC;

DATA;
#10=SHAPE_REPRESENTATION_RELATIONSHIP('','',#187,#11);
#11=ADVANCED_BREP_SHAPE_REPRESENTATION('',(#185),#413);
#12=PLANE('',#192);
#13=PLANE('',#193);
#14=PLANE('',#197);
#15=CIRCLE('',#190,0.018);
#16=CIRCLE('',#191,0.018);
#17=CIRCLE('',#194,0.0165);
#18=CIRCLE('',#196,0.0165);
#19=CYLINDRICAL_SURFACE('',#189,0.018);
#20=CYLINDRICAL_SURFACE('',#195,0.0165);
#21=CYLINDRICAL_SURFACE('',#198,0.00425);
#22=B_SPLINE_CURVE_WITH_KNOTS('',3,(#241,#242,#243,#244,#245,#246,#247,
#248,#249,#250,#251),.UNSPECIFIED.,.F.,.F.,(4,1,1,1,1,1,1,1,4),(0.,0.00186456147360879,
0.00372912294721759,0.00559368442082638,0.00745824589443518,0.00932280736804397,
0.0111873688416528,0.0130519303152616,0.0149164917888704),.UNSPECIFIED.);
#23=B_SPLINE_CURVE_WITH_KNOTS('',3,(#255,#256,#257,#258),.UNSPECIFIED.,
 .F.,.F.,(4,4),(0.,1.),.PIECEWISE_BEZIER_KNOTS.);
#24=B_SPLINE_CURVE_WITH_KNOTS('',3,(#262,#263,#264,#265),.UNSPECIFIED.,
 .F.,.F.,(4,4),(0.,1.),.PIECEWISE_BEZIER_KNOTS.);
#25=B_SPLINE_CURVE_WITH_KNOTS('',3,(#274,#275,#276,#277,#278,#279,#280,
#281,#282,#283,#284),.UNSPECIFIED.,.F.,.F.,(4,1,1,1,1,1,1,1,4),(0.,0.00186456147360879,
0.00372912294721759,0.00559368442082638,0.00745824589443518,0.00932280736804397,
0.0111873688416528,0.0130519303152616,0.0149164917888704),.UNSPECIFIED.);
#26=B_SPLINE_CURVE_WITH_KNOTS('',3,(#285,#286,#287,#288),.UNSPECIFIED.,
 .F.,.F.,(4,4),(0.,1.),.PIECEWISE_BEZIER_KNOTS.);
#27=B_SPLINE_CURVE_WITH_KNOTS('',3,(#292,#293,#294,#295),.UNSPECIFIED.,
 .F.,.F.,(4,4),(0.,1.),.PIECEWISE_BEZIER_KNOTS.);
#28=B_SPLINE_CURVE_WITH_KNOTS('',3,(#308,#309,#310,#311,#312,#313,#314,
#315,#316,#317,#318),.UNSPECIFIED.,.F.,.F.,(4,1,1,1,1,1,1,1,4),(0.,0.00191497155700842,
0.00382994311401684,0.00574491467102526,0.00765988622803367,0.00957485778504209,
0.0114898293420505,0.0134048008990589,0.0153197724560673),.UNSPECIFIED.);
#29=B_SPLINE_CURVE_WITH_KNOTS('',3,(#323,#324,#325,#326,#327,#328,#329,
#330,#331,#332,#333,#334),.UNSPECIFIED.,.F.,.F.,(4,3,1,1,1,1,1,4),(-0.000497565787174806,
0.,0.25,0.5,0.625,0.75,0.875,0.959194439995867),.UNSPECIFIED.);
#30=B_SPLINE_CURVE_WITH_KNOTS('',3,(#338,#339,#340,#341,#342,#343,#344,
#345,#346,#347,#348,#349),.UNSPECIFIED.,.F.,.F.,(4,3,1,1,1,1,1,4),(-0.000497565787174806,
0.,0.25,0.5,0.625,0.75,0.875,0.959194439995867),.UNSPECIFIED.);
#31=B_SPLINE_CURVE_WITH_KNOTS('',3,(#364,#365,#366,#367,#368,#369,#370,
#371,#372,#373,#374),.UNSPECIFIED.,.F.,.F.,(4,1,1,1,1,1,1,1,4),(0.,0.00191497155662406,
0.00382994311324811,0.00574491466987217,0.00765988622649622,0.00957485778312028,
0.0114898293397443,0.0134048008963684,0.0153197724529924),.UNSPECIFIED.);
#32=B_SPLINE_CURVE_WITH_KNOTS('',3,(#375,#376,#377,#378,#379,#380,#381,
#382,#383,#384,#385,#386),.UNSPECIFIED.,.F.,.F.,(4,3,1,1,1,1,1,4),(-0.000497565787194674,
0.,0.25,0.5,0.625,0.75,0.875,0.959194439924795),.UNSPECIFIED.);
#33=B_SPLINE_CURVE_WITH_KNOTS('',3,(#390,#391,#392,#393,#394,#395,#396,
#397,#398,#399,#400,#401),.UNSPECIFIED.,.F.,.F.,(4,3,1,1,1,1,1,4),(-0.000497565787194674,
0.,0.25,0.5,0.625,0.75,0.875,0.959194439924795),.UNSPECIFIED.);
#34=ORIENTED_EDGE('',*,*,#82,.T.);
#35=ORIENTED_EDGE('',*,*,#83,.T.);
#36=ORIENTED_EDGE('',*,*,#84,.T.);
#37=ORIENTED_EDGE('',*,*,#85,.F.);
#38=ORIENTED_EDGE('',*,*,#86,.F.);
#39=ORIENTED_EDGE('',*,*,#87,.T.);
#40=ORIENTED_EDGE('',*,*,#88,.F.);
#41=ORIENTED_EDGE('',*,*,#82,.F.);
#42=ORIENTED_EDGE('',*,*,#89,.F.);
#43=ORIENTED_EDGE('',*,*,#90,.T.);
#44=ORIENTED_EDGE('',*,*,#91,.T.);
#45=ORIENTED_EDGE('',*,*,#84,.F.);
#46=ORIENTED_EDGE('',*,*,#92,.F.);
#47=ORIENTED_EDGE('',*,*,#93,.F.);
#48=ORIENTED_EDGE('',*,*,#94,.F.);
#49=ORIENTED_EDGE('',*,*,#95,.T.);
#50=ORIENTED_EDGE('',*,*,#96,.T.);
#51=ORIENTED_EDGE('',*,*,#97,.F.);
#52=ORIENTED_EDGE('',*,*,#93,.T.);
#53=ORIENTED_EDGE('',*,*,#98,.T.);
#54=ORIENTED_EDGE('',*,*,#97,.T.);
#55=ORIENTED_EDGE('',*,*,#99,.F.);
#56=ORIENTED_EDGE('',*,*,#100,.F.);
#57=ORIENTED_EDGE('',*,*,#101,.T.);
#58=ORIENTED_EDGE('',*,*,#102,.T.);
#59=ORIENTED_EDGE('',*,*,#90,.F.);
#60=ORIENTED_EDGE('',*,*,#103,.F.);
#61=ORIENTED_EDGE('',*,*,#86,.T.);
#62=ORIENTED_EDGE('',*,*,#87,.F.);
#63=ORIENTED_EDGE('',*,*,#103,.T.);
#64=ORIENTED_EDGE('',*,*,#89,.T.);
#65=ORIENTED_EDGE('',*,*,#99,.T.);
#66=ORIENTED_EDGE('',*,*,#96,.F.);
#67=ORIENTED_EDGE('',*,*,#104,.T.);
#68=ORIENTED_EDGE('',*,*,#85,.T.);
#69=ORIENTED_EDGE('',*,*,#91,.F.);
#70=ORIENTED_EDGE('',*,*,#102,.F.);
#71=ORIENTED_EDGE('',*,*,#104,.F.);
#72=ORIENTED_EDGE('',*,*,#95,.F.);
#73=ORIENTED_EDGE('',*,*,#105,.T.);
#74=ORIENTED_EDGE('',*,*,#100,.T.);
#75=ORIENTED_EDGE('',*,*,#94,.T.);
#76=ORIENTED_EDGE('',*,*,#101,.F.);
#77=ORIENTED_EDGE('',*,*,#105,.F.);
#78=ORIENTED_EDGE('',*,*,#88,.T.);
#79=ORIENTED_EDGE('',*,*,#83,.F.);
#80=ORIENTED_EDGE('',*,*,#92,.T.);
#81=ORIENTED_EDGE('',*,*,#98,.F.);
#82=EDGE_CURVE('',#106,#107,#122,.T.);
#83=EDGE_CURVE('',#107,#108,#22,.T.);
#84=EDGE_CURVE('',#108,#109,#123,.T.);
#85=EDGE_CURVE('',#110,#109,#23,.T.);
#86=EDGE_CURVE('',#111,#110,#124,.T.);
#87=EDGE_CURVE('',#111,#106,#24,.T.);
#88=EDGE_CURVE('',#107,#108,#25,.T.);
#89=EDGE_CURVE('',#112,#106,#26,.T.);
#90=EDGE_CURVE('',#112,#113,#125,.T.);
#91=EDGE_CURVE('',#113,#109,#27,.T.);
#92=EDGE_CURVE('',#114,#115,#28,.T.);
#93=EDGE_CURVE('',#116,#114,#126,.T.);
#94=EDGE_CURVE('',#117,#116,#29,.T.);
#95=EDGE_CURVE('',#117,#118,#127,.T.);
#96=EDGE_CURVE('',#118,#119,#30,.T.);
#97=EDGE_CURVE('',#115,#119,#128,.T.);
#98=EDGE_CURVE('',#114,#115,#31,.T.);
#99=EDGE_CURVE('',#120,#119,#32,.T.);
#100=EDGE_CURVE('',#121,#120,#129,.T.);
#101=EDGE_CURVE('',#121,#116,#33,.T.);
#102=EDGE_CURVE('',#110,#113,#15,.T.);
#103=EDGE_CURVE('',#111,#112,#16,.T.);
#104=EDGE_CURVE('',#118,#120,#17,.T.);
#105=EDGE_CURVE('',#117,#121,#18,.T.);
#106=VERTEX_POINT('',#239);
#107=VERTEX_POINT('',#240);
#108=VERTEX_POINT('',#252);
#109=VERTEX_POINT('',#254);
#110=VERTEX_POINT('',#259);
#111=VERTEX_POINT('',#261);
#112=VERTEX_POINT('',#289);
#113=VERTEX_POINT('',#291);
#114=VERTEX_POINT('',#319);
#115=VERTEX_POINT('',#320);
#116=VERTEX_POINT('',#322);
#117=VERTEX_POINT('',#335);
#118=VERTEX_POINT('',#337);
#119=VERTEX_POINT('',#350);
#120=VERTEX_POINT('',#387);
#121=VERTEX_POINT('',#389);
#122=LINE('',#238,#130);
#123=LINE('',#253,#131);
#124=LINE('',#260,#132);
#125=LINE('',#290,#133);
#126=LINE('',#321,#134);
#127=LINE('',#336,#135);
#128=LINE('',#351,#136);
#129=LINE('',#388,#137);
#130=VECTOR('',#201,1.);
#131=VECTOR('',#202,1.);
#132=VECTOR('',#203,1.);
#133=VECTOR('',#204,1.);
#134=VECTOR('',#205,1.);
#135=VECTOR('',#206,1.);
#136=VECTOR('',#207,1.);
#137=VECTOR('',#208,1.);
#138=EDGE_LOOP('',(#34,#35,#36,#37,#38,#39));
#139=EDGE_LOOP('',(#40,#41,#42,#43,#44,#45));
#140=EDGE_LOOP('',(#46,#47,#48,#49,#50,#51));
#141=EDGE_LOOP('',(#52,#53,#54,#55,#56,#57));
#142=EDGE_LOOP('',(#58,#59,#60,#61));
#143=EDGE_LOOP('',(#62,#63,#64));
#144=EDGE_LOOP('',(#65,#66,#67));
#145=EDGE_LOOP('',(#68,#69,#70));
#146=EDGE_LOOP('',(#71,#72,#73,#74));
#147=EDGE_LOOP('',(#75,#76,#77));
#148=EDGE_LOOP('',(#78,#79));
#149=EDGE_LOOP('',(#80,#81));
#150=FACE_BOUND('',#138,.T.);
#151=FACE_BOUND('',#139,.T.);
#152=FACE_BOUND('',#140,.T.);
#153=FACE_BOUND('',#141,.T.);
#154=FACE_BOUND('',#142,.T.);
#155=FACE_BOUND('',#143,.T.);
#156=FACE_BOUND('',#144,.T.);
#157=FACE_BOUND('',#145,.T.);
#158=FACE_BOUND('',#146,.T.);
#159=FACE_BOUND('',#147,.T.);
#160=FACE_BOUND('',#148,.T.);
#161=FACE_BOUND('',#149,.T.);
#162=B_SPLINE_SURFACE_WITH_KNOTS('',3,1,((#230,#231),(#232,#233),(#234,
#235),(#236,#237)),.SURF_OF_LINEAR_EXTRUSION.,.F.,.F.,.F.,(4,4),(2,2),(0.,
1.),(0.,1.),.PIECEWISE_BEZIER_KNOTS.);
#163=B_SPLINE_SURFACE_WITH_KNOTS('',3,1,((#266,#267),(#268,#269),(#270,
#271),(#272,#273)),.SURF_OF_LINEAR_EXTRUSION.,.F.,.F.,.F.,(4,4),(2,2),(0.,
1.),(0.,1.),.PIECEWISE_BEZIER_KNOTS.);
#164=B_SPLINE_SURFACE_WITH_KNOTS('',3,1,((#296,#297),(#298,#299),(#300,
#301),(#302,#303),(#304,#305),(#306,#307)),.SURF_OF_LINEAR_EXTRUSION.,.F.,
 .F.,.F.,(4,1,1,4),(2,2),(-0.000497565787174806,0.479348437104346,0.719271438550107,
0.959194439995867),(0.,1.),.UNSPECIFIED.);
#165=B_SPLINE_SURFACE_WITH_KNOTS('',3,1,((#352,#353),(#354,#355),(#356,
#357),(#358,#359),(#360,#361),(#362,#363)),.SURF_OF_LINEAR_EXTRUSION.,.F.,
 .F.,.F.,(4,1,1,4),(2,2),(-0.000497565787194674,0.4793484370688,0.719271438496798,
0.959194439924795),(0.,1.),.UNSPECIFIED.);
#166=ADVANCED_FACE('',(#150),#162,.T.);
#167=ADVANCED_FACE('',(#151),#163,.F.);
#168=ADVANCED_FACE('',(#152),#164,.F.);
#169=ADVANCED_FACE('',(#153),#165,.T.);
#170=ADVANCED_FACE('',(#154),#19,.T.);
#171=ADVANCED_FACE('',(#155),#12,.T.);
#172=ADVANCED_FACE('',(#156,#157),#13,.F.);
#173=ADVANCED_FACE('',(#158),#20,.F.);
#174=ADVANCED_FACE('',(#159),#14,.F.);
#175=ADVANCED_FACE('',(#160,#161),#21,.F.);
#176=CLOSED_SHELL('',(#166,#167,#168,#169,#170,#171,#172,#173,#174,#175));
#177=STYLED_ITEM('',(#178),#185);
#178=PRESENTATION_STYLE_ASSIGNMENT((#179));
#179=SURFACE_STYLE_USAGE(.BOTH.,#180);
#180=SURFACE_SIDE_STYLE('',(#181));
#181=SURFACE_STYLE_FILL_AREA(#182);
#182=FILL_AREA_STYLE('',(#183));
#183=FILL_AREA_STYLE_COLOUR('',#184);
#184=COLOUR_RGB('',0.615686274509804,0.811764705882353,0.929411764705882);
#185=MANIFOLD_SOLID_BREP('Part 1',#176);
#186=SHAPE_DEFINITION_REPRESENTATION(#418,#187);
#187=SHAPE_REPRESENTATION('Part 1',(#188),#413);
#188=AXIS2_PLACEMENT_3D('',#229,#199,#200);
#189=AXIS2_PLACEMENT_3D('',#402,#209,#210);
#190=AXIS2_PLACEMENT_3D('',#403,#211,#212);
#191=AXIS2_PLACEMENT_3D('',#404,#213,#214);
#192=AXIS2_PLACEMENT_3D('',#405,#215,#216);
#193=AXIS2_PLACEMENT_3D('',#406,#217,#218);
#194=AXIS2_PLACEMENT_3D('',#407,#219,#220);
#195=AXIS2_PLACEMENT_3D('',#408,#221,#222);
#196=AXIS2_PLACEMENT_3D('',#409,#223,#224);
#197=AXIS2_PLACEMENT_3D('',#410,#225,#226);
#198=AXIS2_PLACEMENT_3D('',#411,#227,#228);
#199=DIRECTION('',(0.,0.,1.));
#200=DIRECTION('',(1.,0.,0.));
#201=DIRECTION('',(0.,1.,0.));
#202=DIRECTION('',(0.,1.,0.));
#203=DIRECTION('',(0.,1.,0.));
#204=DIRECTION('',(0.,1.,0.));
#205=DIRECTION('',(0.,1.,0.));
#206=DIRECTION('',(0.,1.,0.));
#207=DIRECTION('',(0.,1.,0.));
#208=DIRECTION('',(0.,1.,0.));
#209=DIRECTION('',(0.,1.,0.));
#210=DIRECTION('',(0.,0.,1.));
#211=DIRECTION('',(0.,-1.,0.));
#212=DIRECTION('',(0.,0.,-1.));
#213=DIRECTION('',(0.,-1.,0.));
#214=DIRECTION('',(0.,0.,-1.));
#215=DIRECTION('',(0.,-1.,0.));
#216=DIRECTION('',(1.,0.,0.));
#217=DIRECTION('',(0.,-1.,0.));
#218=DIRECTION('',(1.,0.,0.));
#219=DIRECTION('',(0.,-1.,0.));
#220=DIRECTION('',(0.,0.,-1.));
#221=DIRECTION('',(0.,1.,0.));
#222=DIRECTION('',(0.,0.,1.));
#223=DIRECTION('',(0.,-1.,0.));
#224=DIRECTION('',(0.,0.,-1.));
#225=DIRECTION('',(0.,-1.,0.));
#226=DIRECTION('',(1.,0.,0.));
#227=DIRECTION('',(0.,0.,-1.));
#228=DIRECTION('',(-1.,0.,0.));
#229=CARTESIAN_POINT('',(0.,0.,0.));
#230=CARTESIAN_POINT('',(-0.0177360398868317,-0.012,0.00307130088606036));
#231=CARTESIAN_POINT('',(-0.0177360398868317,0.,0.00307130088606036));
#232=CARTESIAN_POINT('',(-0.0160113211325599,-0.012,0.0144611447645288));
#233=CARTESIAN_POINT('',(-0.0160113211325599,-1.73472347597681E-18,0.0144611447645288));
#234=CARTESIAN_POINT('',(-0.00654708060760605,-0.012,0.0273570667327496));
#235=CARTESIAN_POINT('',(-0.00654708060760605,-1.73472347597681E-18,0.0273570667327496));
#236=CARTESIAN_POINT('',(0.,-0.012,0.031));
#237=CARTESIAN_POINT('',(0.,0.,0.031));
#238=CARTESIAN_POINT('',(0.,-0.012,0.031));
#239=CARTESIAN_POINT('',(0.,-0.012,0.031));
#240=CARTESIAN_POINT('',(0.,-0.0095,0.031));
#241=CARTESIAN_POINT('',(0.,-0.0095,0.031));
#242=CARTESIAN_POINT('',(-0.000553632965342906,-0.0095,0.030691946980926));
#243=CARTESIAN_POINT('',(-0.00158425589470257,-0.00929319501544275,0.0300135335095849));
#244=CARTESIAN_POINT('',(-0.00292699548407605,-0.0084665312765078,0.0289465668131145));
#245=CARTESIAN_POINT('',(-0.00395149694500405,-0.00712640879636672,0.0280240487529759));
#246=CARTESIAN_POINT('',(-0.00439803828611103,-0.00526123197673207,0.0275928127495382));
#247=CARTESIAN_POINT('',(-0.00395629643246214,-0.00338088761782193,0.0280195542254459));
#248=CARTESIAN_POINT('',(-0.00293676162984531,-0.00204446008654641,0.0289378469250844));
#249=CARTESIAN_POINT('',(-0.00160072996894093,-0.00121110758524135,0.0300021839177772));
#250=CARTESIAN_POINT('',(-0.000552827646409632,-0.001,0.0306923950773079));
#251=CARTESIAN_POINT('',(0.,-0.001,0.031));
#252=CARTESIAN_POINT('',(0.,-0.001,0.031));
#253=CARTESIAN_POINT('',(0.,-0.012,0.031));
#254=CARTESIAN_POINT('',(0.,0.,0.031));
#255=CARTESIAN_POINT('',(-0.0177360398868317,0.,0.00307130088606036));
#256=CARTESIAN_POINT('',(-0.0160113211325599,0.,0.0144611447645288));
#257=CARTESIAN_POINT('',(-0.00654708060760605,0.,0.0273570667327496));
#258=CARTESIAN_POINT('',(0.,0.,0.031));
#259=CARTESIAN_POINT('',(-0.0177360398868317,0.,0.00307130088606036));
#260=CARTESIAN_POINT('',(-0.0177360398868317,-0.012,0.00307130088606036));
#261=CARTESIAN_POINT('',(-0.0177360398868317,-0.012,0.00307130088606036));
#262=CARTESIAN_POINT('',(-0.0177360398868317,-0.012,0.00307130088606036));
#263=CARTESIAN_POINT('',(-0.0160113211325599,-0.012,0.0144611447645288));
#264=CARTESIAN_POINT('',(-0.00654708060760605,-0.012,0.0273570667327496));
#265=CARTESIAN_POINT('',(0.,-0.012,0.031));
#266=CARTESIAN_POINT('',(0.0177360398868317,-0.012,0.00307130088606036));
#267=CARTESIAN_POINT('',(0.0177360398868317,0.,0.00307130088606036));
#268=CARTESIAN_POINT('',(0.0160113211325599,-0.012,0.0144611447645288));
#269=CARTESIAN_POINT('',(0.0160113211325599,-1.73472347597681E-18,0.0144611447645288));
#270=CARTESIAN_POINT('',(0.00654708060760605,-0.012,0.0273570667327496));
#271=CARTESIAN_POINT('',(0.00654708060760605,-1.73472347597681E-18,0.0273570667327496));
#272=CARTESIAN_POINT('',(0.,-0.012,0.031));
#273=CARTESIAN_POINT('',(0.,0.,0.031));
#274=CARTESIAN_POINT('',(0.,-0.0095,0.031));
#275=CARTESIAN_POINT('',(0.000553632965342906,-0.0095,0.030691946980926));
#276=CARTESIAN_POINT('',(0.00158425589470257,-0.00929319501544275,0.0300135335095849));
#277=CARTESIAN_POINT('',(0.00292699548407605,-0.0084665312765078,0.0289465668131145));
#278=CARTESIAN_POINT('',(0.00395149694500405,-0.00712640879636672,0.0280240487529759));
#279=CARTESIAN_POINT('',(0.00439803828611103,-0.00526123197673207,0.0275928127495382));
#280=CARTESIAN_POINT('',(0.00395629643246214,-0.00338088761782193,0.0280195542254459));
#281=CARTESIAN_POINT('',(0.00293676162984531,-0.00204446008654641,0.0289378469250844));
#282=CARTESIAN_POINT('',(0.00160072996894093,-0.00121110758524135,0.0300021839177772));
#283=CARTESIAN_POINT('',(0.000552827646409632,-0.001,0.0306923950773079));
#284=CARTESIAN_POINT('',(0.,-0.001,0.031));
#285=CARTESIAN_POINT('',(0.0177360398868317,-0.012,0.00307130088606036));
#286=CARTESIAN_POINT('',(0.0160113211325599,-0.012,0.0144611447645288));
#287=CARTESIAN_POINT('',(0.00654708060760605,-0.012,0.0273570667327496));
#288=CARTESIAN_POINT('',(0.,-0.012,0.031));
#289=CARTESIAN_POINT('',(0.0177360398868317,-0.012,0.00307130088606036));
#290=CARTESIAN_POINT('',(0.0177360398868317,-0.012,0.00307130088606036));
#291=CARTESIAN_POINT('',(0.0177360398868317,0.,0.00307130088606036));
#292=CARTESIAN_POINT('',(0.0177360398868317,0.,0.00307130088606036));
#293=CARTESIAN_POINT('',(0.0160113211325599,0.,0.0144611447645288));
#294=CARTESIAN_POINT('',(0.00654708060760605,0.,0.0273570667327496));
#295=CARTESIAN_POINT('',(0.,0.,0.031));
#296=CARTESIAN_POINT('',(-0.0162553774582631,-0.01,0.0028306719501547));
#297=CARTESIAN_POINT('',(-0.0162553774582631,-1.73472347597681E-18,0.0028306719501547));
#298=CARTESIAN_POINT('',(-0.0154740950500508,-0.01,0.00799017093065636));
#299=CARTESIAN_POINT('',(-0.0154740950500508,0.,0.00799017093065636));
#300=CARTESIAN_POINT('',(-0.0116953700642709,-0.01,0.0164833775317173));
#301=CARTESIAN_POINT('',(-0.0116953700642709,1.73472347597681E-18,0.0164833775317173));
#302=CARTESIAN_POINT('',(-0.00485370209966173,-0.01,0.0253325015356085));
#303=CARTESIAN_POINT('',(-0.00485370209966173,-1.73472347597681E-18,0.0253325015356085));
#304=CARTESIAN_POINT('',(-0.00147190673940045,-0.01,0.0282958805203448));
#305=CARTESIAN_POINT('',(-0.00147190673940045,-1.73472347597681E-18,0.0282958805203448));
#306=CARTESIAN_POINT('',(-2.67218566067998E-13,-0.01,0.0292491800713423));
#307=CARTESIAN_POINT('',(-2.67218566067998E-13,0.,0.0292491800713423));
#308=CARTESIAN_POINT('',(-2.67218566067998E-13,-0.0095,0.0292491800713423));
#309=CARTESIAN_POINT('',(-0.00054441026604497,-0.00949999999996577,0.0288965856792343));
#310=CARTESIAN_POINT('',(-0.00156357274546744,-0.00929884818684114,0.0281384573435933));
#311=CARTESIAN_POINT('',(-0.00289427150231329,-0.00849300611099871,0.0269721255583765));
#312=CARTESIAN_POINT('',(-0.00393509931195051,-0.00716767236207513,0.0259501771378289));
#313=CARTESIAN_POINT('',(-0.00440627634673595,-0.00526172658558311,0.0254551441262336));
#314=CARTESIAN_POINT('',(-0.00393973831694996,-0.00333933037362346,0.0259453729978207));
#315=CARTESIAN_POINT('',(-0.0029055073566257,-0.00201858129434221,0.0269614016249798));
#316=CARTESIAN_POINT('',(-0.00157587822196597,-0.00120378395621522,0.0281290528948092));
#317=CARTESIAN_POINT('',(-0.000544007073372916,-0.0010000000000342,0.0288968468122144));
#318=CARTESIAN_POINT('',(-2.67218566067998E-13,-0.001,0.0292491800713423));
#319=CARTESIAN_POINT('',(1.5752767200481E-12,-0.0095,0.0292491800704952));
#320=CARTESIAN_POINT('',(6.54029076990054E-13,-0.001,0.0292491800709187));
#321=CARTESIAN_POINT('',(6.54028076992748E-13,-0.01,0.0292491797730652));
#322=CARTESIAN_POINT('',(6.54028076992748E-13,-0.01,0.0292491797730652));
#323=CARTESIAN_POINT('',(-0.0162553774582631,-0.01,0.00283067195015469));
#324=CARTESIAN_POINT('',(-0.0162545673246075,-0.01,0.00283602197944782));
#325=CARTESIAN_POINT('',(-0.0162537571909519,-0.01,0.00284137200874096));
#326=CARTESIAN_POINT('',(-0.0162529470572964,-0.01,0.00284672203803409));
#327=CARTESIAN_POINT('',(-0.0158458985440829,-0.01,0.00553482350674083));
#328=CARTESIAN_POINT('',(-0.0140958520308168,-0.01,0.0111902705651421));
#329=CARTESIAN_POINT('',(-0.0103274308730544,-0.01,0.0179872869785869));
#330=CARTESIAN_POINT('',(-0.00687576169227685,-0.01,0.0227119288941375));
#331=CARTESIAN_POINT('',(-0.00420230397508788,-0.01,0.0257635661344341));
#332=CARTESIAN_POINT('',(-0.00187155752085848,-0.01,0.0279226525684459));
#333=CARTESIAN_POINT('',(-0.000516525564221874,-0.01,0.0289146455691859));
#334=CARTESIAN_POINT('',(-2.67218566067998E-13,-0.01,0.0292491800713423));
#335=CARTESIAN_POINT('',(-0.0162553774582631,-0.01,0.00283067195015469));
#336=CARTESIAN_POINT('',(-0.0162553774582631,-0.01,0.00283067195015469));
#337=CARTESIAN_POINT('',(-0.0162553774582631,0.,0.00283067195015469));
#338=CARTESIAN_POINT('',(-0.0162553774582631,0.,0.00283067195015469));
#339=CARTESIAN_POINT('',(-0.0162545673246075,0.,0.00283602197944782));
#340=CARTESIAN_POINT('',(-0.0162537571909519,0.,0.00284137200874096));
#341=CARTESIAN_POINT('',(-0.0162529470572964,0.,0.00284672203803409));
#342=CARTESIAN_POINT('',(-0.0158458985440829,0.,0.00553482350674083));
#343=CARTESIAN_POINT('',(-0.0140958520308168,0.,0.0111902705651421));
#344=CARTESIAN_POINT('',(-0.0103274308730544,0.,0.0179872869785869));
#345=CARTESIAN_POINT('',(-0.00687576169227685,0.,0.0227119288941375));
#346=CARTESIAN_POINT('',(-0.00420230397508788,0.,0.0257635661344341));
#347=CARTESIAN_POINT('',(-0.00187155752085848,0.,0.0279226525684459));
#348=CARTESIAN_POINT('',(-0.000516525564221874,0.,0.0289146455691859));
#349=CARTESIAN_POINT('',(-2.67218566067998E-13,0.,0.0292491800713423));
#350=CARTESIAN_POINT('',(1.5752767200481E-12,0.,0.0292491800704952));
#351=CARTESIAN_POINT('',(6.54028076992748E-13,-0.01,0.0292491797730652));
#352=CARTESIAN_POINT('',(0.0162553774582632,-0.01,0.00283067195015406));
#353=CARTESIAN_POINT('',(0.0162553774582632,1.73472347597681E-18,0.00283067195015406));
#354=CARTESIAN_POINT('',(0.0154740950500931,-0.01,0.00799017093027473));
#355=CARTESIAN_POINT('',(0.0154740950500931,1.73472347597681E-18,0.00799017093027473));
#356=CARTESIAN_POINT('',(0.0116953700648114,-0.01,0.0164833775306528));
#357=CARTESIAN_POINT('',(0.0116953700648114,0.,0.0164833775306528));
#358=CARTESIAN_POINT('',(0.0048537021008297,-0.01,0.0253325015342862));
#359=CARTESIAN_POINT('',(0.0048537021008297,1.73472347597681E-18,0.0253325015342862));
#360=CARTESIAN_POINT('',(0.00147190674073825,-0.01,0.0282958805192569));
#361=CARTESIAN_POINT('',(0.00147190674073825,3.46944695195361E-18,0.0282958805192569));
#362=CARTESIAN_POINT('',(1.5752767200481E-12,-0.01,0.0292491800704952));
#363=CARTESIAN_POINT('',(1.5752767200481E-12,1.73472347597681E-18,0.0292491800704952));
#364=CARTESIAN_POINT('',(1.57527672004811E-12,-0.0095,0.0292491800704952));
#365=CARTESIAN_POINT('',(0.000544410267203287,-0.00949999999979821,0.0288965856784022));
#366=CARTESIAN_POINT('',(0.00156357274633362,-0.0092988481864667,0.028138457342873));
#367=CARTESIAN_POINT('',(0.00289427150277407,-0.00849300611054168,0.0269721255579359));
#368=CARTESIAN_POINT('',(0.00393509931207078,-0.00716767236172637,0.0259501771377016));
#369=CARTESIAN_POINT('',(0.00440627634667365,-0.00526172658558025,0.0254551441262995));
#370=CARTESIAN_POINT('',(0.0039397383170789,-0.00333933037399599,0.0259453729976847));
#371=CARTESIAN_POINT('',(0.00290550735708945,-0.00201858129480297,0.026961401624536));
#372=CARTESIAN_POINT('',(0.00157587822284456,-0.00120378395659765,0.0281290528940779));
#373=CARTESIAN_POINT('',(0.000544007074531043,-0.00100000000020164,0.0288968468113825));
#374=CARTESIAN_POINT('',(1.5752767200481E-12,-0.001,0.0292491800704952));
#375=CARTESIAN_POINT('',(0.0162553774582632,0.,0.00283067195015406));
#376=CARTESIAN_POINT('',(0.0162545673246076,0.,0.0028360219794474));
#377=CARTESIAN_POINT('',(0.0162537571909519,0.,0.00284137200874075));
#378=CARTESIAN_POINT('',(0.0162529470572964,0.,0.00284672203803409));
#379=CARTESIAN_POINT('',(0.0158458985440829,0.,0.00553482350674083));
#380=CARTESIAN_POINT('',(0.0140958520308168,0.,0.0111902705651421));
#381=CARTESIAN_POINT('',(0.0103274308730544,0.,0.0179872869785869));
#382=CARTESIAN_POINT('',(0.00687576169227685,0.,0.0227119288941375));
#383=CARTESIAN_POINT('',(0.00420230397508788,0.,0.0257635661344341));
#384=CARTESIAN_POINT('',(0.00187155752135415,0.,0.0279226525679868));
#385=CARTESIAN_POINT('',(0.000516525565142592,0.,0.0289146455685118));
#386=CARTESIAN_POINT('',(1.5752767200481E-12,0.,0.0292491800704952));
#387=CARTESIAN_POINT('',(0.0162553774582632,0.,0.00283067195015406));
#388=CARTESIAN_POINT('',(0.0162553774582632,-0.01,0.00283067195015406));
#389=CARTESIAN_POINT('',(0.0162553774582632,-0.01,0.00283067195015406));
#390=CARTESIAN_POINT('',(0.0162553774582632,-0.01,0.00283067195015406));
#391=CARTESIAN_POINT('',(0.0162545673246076,-0.01,0.0028360219794474));
#392=CARTESIAN_POINT('',(0.0162537571909519,-0.01,0.00284137200874075));
#393=CARTESIAN_POINT('',(0.0162529470572964,-0.01,0.00284672203803409));
#394=CARTESIAN_POINT('',(0.0158458985440829,-0.01,0.00553482350674083));
#395=CARTESIAN_POINT('',(0.0140958520308168,-0.01,0.0111902705651421));
#396=CARTESIAN_POINT('',(0.0103274308730544,-0.01,0.0179872869785869));
#397=CARTESIAN_POINT('',(0.00687576169227685,-0.01,0.0227119288941375));
#398=CARTESIAN_POINT('',(0.00420230397508788,-0.01,0.0257635661344341));
#399=CARTESIAN_POINT('',(0.00187155752135415,-0.01,0.0279226525679868));
#400=CARTESIAN_POINT('',(0.000516525565142592,-0.01,0.0289146455685118));
#401=CARTESIAN_POINT('',(1.5752767200481E-12,-0.01,0.0292491800704952));
#402=CARTESIAN_POINT('',(-5.6296297388198E-18,-0.012,2.16840434497101E-19));
#403=CARTESIAN_POINT('',(-5.6296297388198E-18,0.,2.16840434497101E-19));
#404=CARTESIAN_POINT('',(-5.6296297388198E-18,-0.012,2.16840434497101E-19));
#405=CARTESIAN_POINT('',(0.,-0.012,0.0065));
#406=CARTESIAN_POINT('',(0.,0.,0.0065));
#407=CARTESIAN_POINT('',(-3.89271755365645E-18,0.,-2.81892564846231E-18));
#408=CARTESIAN_POINT('',(-3.89271755365645E-18,-0.01,-2.81892564846231E-18));
#409=CARTESIAN_POINT('',(-3.89271755365645E-18,-0.01,-2.81892564846231E-18));
#410=CARTESIAN_POINT('',(-6.93889390390723E-18,-0.01,0.00637463514417083));
#411=CARTESIAN_POINT('',(0.,-0.00525,0.035));
#412=MECHANICAL_DESIGN_GEOMETRIC_PRESENTATION_REPRESENTATION('',(#177),
#413);
#413=(
GEOMETRIC_REPRESENTATION_CONTEXT(3)
GLOBAL_UNCERTAINTY_ASSIGNED_CONTEXT((#414))
GLOBAL_UNIT_ASSIGNED_CONTEXT((#417,#416,#415))
REPRESENTATION_CONTEXT('Part 1','TOP_LEVEL_ASSEMBLY_PART')
);
#414=UNCERTAINTY_MEASURE_WITH_UNIT(LENGTH_MEASURE(2.E-5),#417,
'DISTANCE_ACCURACY_VALUE','Maximum Tolerance applied to model');
#415=(
NAMED_UNIT(*)
SI_UNIT($,.STERADIAN.)
SOLID_ANGLE_UNIT()
);
#416=(
NAMED_UNIT(*)
PLANE_ANGLE_UNIT()
SI_UNIT($,.RADIAN.)
);
#417=(
LENGTH_UNIT()
NAMED_UNIT(*)
SI_UNIT($,.METRE.)
);
#418=PRODUCT_DEFINITION_SHAPE('','',#419);
#419=PRODUCT_DEFINITION('','',#421,#420);
#420=PRODUCT_DEFINITION_CONTEXT('',#427,'design');
#421=PRODUCT_DEFINITION_FORMATION_WITH_SPECIFIED_SOURCE('','',#423,
 .NOT_KNOWN.);
#422=PRODUCT_RELATED_PRODUCT_CATEGORY('','',(#423));
#423=PRODUCT('Part 1','Part 1','Part 1',(#425));
#424=PRODUCT_CATEGORY('','');
#425=PRODUCT_CONTEXT('',#427,'mechanical');
#426=APPLICATION_PROTOCOL_DEFINITION('international standard',
'ap242_managed_model_based_3d_engineering',2020,#427);
#427=APPLICATION_CONTEXT('managed model based 3d engineering');
ENDSEC;
END-ISO-10303-21;
